# xmcd CD database file
#
# Track frame offsets:
#	150
#	18360
#	42865
#	65520
#	92488
#	114100
#	136853
#	171868
#	209488
#
# Disc length: 3142 seconds
#
# Revision: 0
# Processed by: cddbd v1.5.2PL0 Copyright (c) Steve Scherf et al.
# Submitted via: CDex 1.51
#
DISCID=6f0c4409
DTITLE=Jimmy Rowles - We Could Make Such Beautiful Music Together
DYEAR=1978
DGENRE=Jazz
TTITLE0=Georgia on my mind
TTITLE1=Stars and stripes for ever
TTITLE2=Here's that rainy day
TTITLE3=We Could Make Such Beautiful Music Together
TTITLE4=How do you do miss Josephine - Three on a match
TTITLE5=Shake it, but don't break it
TTITLE6=I can't get started
TTITLE7=In the still of the night
TTITLE8='Round midnight
EXTD=YEAR: 1978
EXTT0=
EXTT1=
EXTT2=
EXTT3=
EXTT4=
EXTT5=
EXTT6=
EXTT7=
EXTT8=
PLAYORDER=
